<svg xmlns="http://www.w3.org/2000/svg" xmlns:xlink="http://www.w3.org/1999/xlink" width="254" height="254" viewBox="0 0 254 254">
    <defs>
        <path id="q-only-fingerprint---white-a" d="M126.972667,3 C197.532666,3 250.620665,56.0879991 250.620665,124.631998 C250.620665,152.855997 240.204665,179.063997 224.412665,199.895997 L224.412665,199.895997 L250.284665,223.415996 L224.076665,251.975996 L198.204666,226.439996 C178.044666,241.895996 153.516667,249.287996 126.972667,249.287996 C125.726297,249.287996 124.485271,249.27047 123.249794,249.23565 C124.52055,248.290799 125.763962,247.329248 126.979616,246.349546 C127.672117,244.623907 128.344468,242.894936 128.996669,241.160633 C125.863204,243.923374 122.506252,246.557661 118.958163,249.042863 C116.980992,248.923128 115.020685,248.757781 113.076368,248.548933 C120.254867,243.919305 126.684894,238.720033 132.081795,233.135526 C132.751059,231.099804 133.392716,229.055303 133.996669,227 C127.464815,234.794777 118.836108,241.964303 108.859357,248.021852 C106.648302,247.711831 104.459814,247.34252 102.294669,246.918006 C119.044756,237.794556 131.117707,226.297466 137.102506,216.37963 C137.419681,214.999395 137.715261,213.611772 137.996669,212.22012 C137.959553,212.196612 137.925811,212.169074 137.885321,212.148925 C137.220603,211.809072 136.40877,212.071014 136.067976,212.7299 C130.609386,223.306429 117.32793,236.279076 98.2232903,246.045153 C97.3048024,245.836257 96.3930743,245.614445 95.4859029,245.382758 C99.1482932,243.638907 102.803486,241.719114 106.451623,239.620049 L106.451623,239.620049 L106.545243,239.56159 L106.577973,239.538948 C107.854767,238.654043 128.491004,224.181 133.911363,209.537402 C134.113824,208.989513 133.943767,208.393393 133.529701,208.03219 C134.496099,207.954753 135.44424,207.859992 136.372336,207.750564 C137.050551,208.522691 137.73028,209.283118 138.410682,210.031656 C138.619048,208.92509 138.812579,207.812466 138.996669,206.69715 L138.876618,207.413532 C156.573204,204.733657 166.284666,196.871997 166.284666,196.871997 L166.284666,196.871997 L142.092667,174.359997 L167.964666,145.799998 L192.156666,169.991999 C200.220666,157.223997 204.924666,141.431998 204.924666,124.631998 C204.924666,78.5999987 170.652666,43.9919993 126.972667,43.9919993 C119.472438,43.9919993 112.237892,45.0445113 105.404462,47.0265753 C94.1564906,37.8647937 82.6120709,29.1097923 70.6629054,21.1697736 C69.1200989,20.1446097 67.5620368,19.1574883 65.9896266,18.208648 C67.4765782,17.3940081 68.985589,16.6102288 70.5144869,15.8568371 C82.343977,23.1568068 93.8109012,31.3018459 104.996669,40 C104.043737,38.0843761 103.068613,36.1991912 102.072641,34.3464745 C92.739583,27.2680789 83.2029761,20.5912403 73.4146314,14.4781452 C74.898784,13.792203 76.4020459,13.1367328 77.9224683,12.5101055 C83.9182562,16.0526035 89.9347185,19.8768581 95.9966691,24 C94.679877,21.9630907 93.3292168,19.9861296 91.9460433,18.0764439 C88.3085899,15.7017246 84.6847441,13.4330893 81.0690793,11.2663317 C95.1351528,5.91628001 110.592473,3 126.972667,3 Z M131.639088,208.16182 C131.533013,208.282998 131.446652,208.425403 131.386979,208.585742 C126.324742,222.263813 106.1418,236.535312 105.067523,237.287123 C100.527319,239.89732 95.9769618,242.22425 91.4195429,244.267409 C90.1553562,243.89984 88.9014559,243.51106 87.6572826,243.103212 C96.3905281,239.771215 104.291374,235.01409 111.378598,228.373432 C118.247742,221.937237 124.634966,213.843627 127.961423,208.288904 C129.127988,208.276231 130.270493,208.237924 131.388263,208.177552 Z M121.87024,208.124439 C122.845085,208.190267 123.825118,208.23733 124.810025,208.265318 C121.444218,213.502036 115.625665,220.706248 109.531618,226.415808 C101.907781,233.559353 93.2664276,238.448199 83.5924256,241.689582 C81.5103262,240.925117 79.4577632,240.105681 77.4358135,239.233646 C89.9534004,236.112123 102.156388,231.078602 110.472186,222.748368 C113.827414,219.387192 118.249552,213.420548 121.802522,208.224325 Z M114.915838,207.325681 C116.199049,207.534803 117.493149,207.710909 118.797361,207.853231 C115.484422,212.632345 111.575584,217.834368 108.571428,220.84424 C99.9212546,229.509417 86.7065247,234.473671 73.4253735,237.413945 C71.4938881,236.49788 69.593518,235.531124 67.7245176,234.516947 C79.8377044,232.144271 94.7369223,227.824566 102.753726,220.220248 C106.804239,216.378386 110.932138,212.463132 114.559492,207.788578 Z M107.981041,205.849504 C109.287097,206.194211 110.606794,206.503888 111.939226,206.777642 C108.608189,210.94929 104.810943,214.551043 100.898265,218.262331 C93.6381578,225.148052 79.2005403,229.781813 64.1067062,232.468158 C62.1701397,231.332085 60.2719391,230.141729 58.4114816,228.901153 C73.563259,226.40099 93.5345351,221.386428 102.843545,211.679906 C104.414542,210.041546 106.082398,208.169539 107.717333,206.171573 Z M101.727719,203.896031 C102.858032,204.305454 104.00052,204.687828 105.154528,205.042506 C103.754184,206.724572 102.311228,208.338364 100.895522,209.814552 C92.0839047,219.004521 72.6441335,223.826946 57.8879784,226.255006 C56.9877873,226.40314 56.090756,226.544853 55.1983363,226.680358 C54.0873132,225.887505 52.9918704,225.075489 51.9112438,224.245516 C70.6941996,220.209646 93.8041971,212.087844 101.58049,204.050368 Z M94.7238362,200.940585 C96.1066363,201.610186 97.5118383,202.237361 98.9380511,202.82074 C90.7207062,210.468179 67.1944015,218.373533 49.115032,222.03029 C47.8306038,220.982106 46.5689373,219.907479 45.33038,218.807496 C60.4605085,215.688511 82.2972133,209.558215 94.4577041,201.126454 Z M87.9226304,197.195618 C89.2474876,198.01788 90.597921,198.798693 91.9724693,199.536613 C80.0711535,207.316737 58.70335,213.44619 42.8626743,216.549732 C41.4853938,215.260089 40.1402671,213.935702 38.8267136,212.580129 C50.5009976,211.364879 64.1552398,207.642798 75.7359816,202.756913 C80.8035842,200.619027 84.6928871,198.835473 87.7043747,197.305665 Z M68.6236674,180.102984 C69.7967924,181.552475 71.0162483,182.95577 72.2796707,184.310535 C71.313368,189.5959 69.4658398,194.312388 66.3376682,197.778859 C65.832233,198.339346 65.8959375,199.187797 66.4804781,199.673105 C66.7450965,199.892601 67.0713192,200 67.3961418,200 C67.7888691,200 68.1787962,199.842929 68.4560155,199.536172 C71.5396505,196.118705 73.4939617,191.678164 74.6382677,186.731328 C75.3906053,187.473241 76.1591141,188.199146 76.9411553,188.908193 C76.1240933,191.943558 74.945561,194.216128 73.4177569,195.667447 C72.8798733,196.17822 72.8538143,197.031758 73.3596254,197.574918 C73.6228877,197.857631 73.9776905,198 74.3331614,198 C74.6619052,198 74.990649,197.878548 75.2485658,197.63362 C76.9874139,195.981792 78.2476882,193.624497 79.136838,190.82415 C79.7299167,191.322988 80.3312208,191.812803 80.9394679,192.293074 C80.5581308,193.226518 80.2730409,193.804454 80.1839106,193.979629 L80.1552287,194.035141 C79.8089326,194.682098 80.0486251,195.490296 80.6915572,195.839427 C80.8915217,195.948696 81.1073774,196 81.3199224,196 C81.7906997,196 82.2469101,195.746814 82.4859404,195.301072 C82.5411305,195.198615 82.7830833,194.739361 83.1285095,193.958144 C83.8447147,194.482968 84.5701048,194.995023 85.3040898,195.493971 C82.5599507,196.843931 79.0960739,198.411995 74.6992589,200.266847 C61.5747839,205.803921 47.6083733,209.232453 36.4788958,210.086658 C35.839423,209.388703 35.2077731,208.682134 34.584345,207.96802 C35.2608599,207.988682 35.9466032,208 36.6429512,208 C37.3902035,208 37.9966691,207.403772 37.9966691,206.669135 C37.9966691,205.933832 37.3902035,205.33827 36.6429512,205.33827 C35.1108044,205.33827 33.6354248,205.281045 32.2174366,205.166824 C31.4711934,204.263435 30.7405271,203.346595 30.0228759,202.418783 C34.4924598,204.125794 39.307463,205 43.9816558,205 C48.1255132,205 52.1584825,204.312368 55.7371463,202.910164 C61.1780593,200.778572 64.8756758,197.272389 66.4301264,192.769443 C67.2957262,190.263897 68.102915,186.024072 68.5729939,180.715111 Z M61.919131,170.468044 C63.2452617,172.699096 64.6672084,174.852872 66.1789273,176.923408 C65.8551408,183.376657 64.9877456,188.711689 63.8904512,191.88852 C62.2607311,196.605635 58.0248029,199.12179 54.7579701,200.401418 C46.5260353,203.628103 35.6455534,202.724955 27.0406311,198.100781 C26.9295306,198.041101 26.8179458,197.978813 26.7059301,197.913969 C25.8708248,196.731394 25.059962,195.532152 24.2697839,194.317423 C30.1627177,198.969839 37.5304931,200 43.4269494,200 C46.4777297,200 49.1344285,199.723582 50.98889,199.530968 C62.419263,198.344194 62.1237019,181.923334 61.9481078,172.112855 C61.9380547,171.568466 61.9285042,171.044522 61.921467,170.545246 Z M4.07779811,121.632789 C11.128749,117.03163 19.6951422,115.594107 28.2008908,117.584419 C35.6554655,119.328145 42.3385055,123.600069 45.2251907,128.466106 C50.6380623,137.589163 55.2342527,156.324388 55.0604047,168.558918 C55.0307562,170.669137 55.1068989,172.817293 55.1810202,174.894318 C55.4060792,181.199233 55.6176616,187.154591 52.8010547,190.107543 C51.4190306,191.55726 49.3173567,192.270602 46.3740698,192.288893 C46.2689525,192.289571 46.1645089,192.290248 46.0593915,192.290248 C38.0307142,192.290248 32.1057322,190.355485 28.4441432,186.538122 C24.5143701,182.440312 24.605307,177.458302 24.6120754,177.222672 C24.6464407,176.477491 24.0750334,175.844086 23.3331472,175.806827 C22.5858704,175.758051 21.9571875,176.344713 21.9194531,177.091249 C21.9073242,177.344611 21.6660932,183.337228 26.4617371,188.374657 C30.6475654,192.771229 37.2409861,195 46.0607392,195 L46.0607392,195 L46.3915894,194.998645 L46.7852969,194.992489 C50.295145,194.903858 52.90172,193.917623 54.7464002,191.983369 C58.3520613,188.203265 58.120264,181.691731 57.8749901,174.797444 C57.8015427,172.753614 57.7267476,170.640008 57.7557223,168.598209 C57.7854187,166.511237 57.6801625,164.24014 57.4584139,161.859954 C57.9870766,163.046645 58.5429857,164.215656 59.1231268,165.367069 C59.2018128,166.800287 59.2290797,168.059602 59.2290797,169.125646 C59.2290797,170.031946 59.2471753,171.054491 59.2672815,172.161515 C59.4267907,181.044067 59.6935329,195.909822 50.7141054,196.84248 C42.3385339,197.710933 31.8008762,197.839343 24.6129108,191.053919 C18.8880063,185.648558 16.2152225,176.574068 16.6702928,164.082535 C16.6977713,163.336409 16.1200532,162.709906 15.3801452,162.682197 C14.6388967,162.647729 14.0182854,163.237061 13.9914772,163.983863 C13.8213862,168.655244 14.0753458,172.890932 14.7498484,176.679149 C14.1305916,175.275034 13.538461,173.856234 12.9714881,172.423566 C12.1628556,164.656168 12.7614259,160.435524 17.4565327,153.095565 C18.6917597,151.163326 20.242178,150.037926 22.1938099,149.654038 C26.7314883,148.762339 31.8094946,152.279971 31.9022374,152.344625 C32.5084261,152.774311 33.3471439,152.630858 33.7752395,152.023371 C34.2046792,151.416558 34.0608606,150.576044 33.4553439,150.145685 C33.2093738,149.971924 27.3827043,145.89597 21.6897727,147.0079 C19.0116553,147.530528 16.8254782,149.089654 15.1930699,151.641503 C12.0231516,156.597284 10.5797508,160.387444 10.1452,164.515644 C8.97564548,160.866329 7.9649273,157.138558 7.11975272,153.340883 C10.1429956,148.289231 13.1144525,147.724695 13.2866918,147.696765 C13.9722423,147.631897 14.5085251,147.054164 14.5085251,146.351423 C14.5085251,145.605438 13.9040249,145 13.1576867,145 L13.1576867,145 L13.1437594,145.000675 C12.9043829,145.015957 9.73885015,145.328646 6.36085649,149.663655 C6.11289846,148.390728 5.88638918,147.108358 5.67864291,145.818881 C6.67045083,144.729892 7.80152527,143.652918 9.10450788,142.582484 C16.8329946,136.232631 23.7385562,142.280592 24.028366,142.541286 C24.5790047,143.039036 25.4295628,142.996487 25.9289793,142.445383 C26.4297437,141.892928 26.3879572,141.038582 25.8366445,140.537456 C25.7483536,140.457762 16.9462226,132.647754 7.39530389,140.492881 C6.60184971,141.144739 5.86661628,141.800176 5.18403123,142.459215 C5.03398259,141.35807 4.89929311,140.250836 4.77839313,139.138875 C8.01871809,136.776707 11.8887857,135.305571 16.585039,134.044655 C26.5888006,131.357817 32.4598407,145.407949 32.5178296,145.550142 C32.7990084,146.238194 33.5845559,146.570426 34.2750285,146.28941 C34.9641525,146.008394 35.2959031,145.223301 35.0153986,144.533902 C34.9486439,144.368796 33.3377659,140.456136 30.2582849,136.876381 C26.01026,131.937371 21.0414195,130.059213 15.8851264,131.441381 C11.5014681,132.618544 7.73460895,134.002714 4.485313,136.070726 C4.37582784,134.837688 4.28748825,133.597143 4.21630273,132.351304 C12.1329194,127.819219 21.5697356,127.234237 28.5730633,131.63578 C38.4335682,137.833267 45.5439193,154.668794 39.7853844,165.55031 C38.5751549,167.837357 37.2752538,168.880051 35.9214149,168.880051 L35.9214149,168.880051 L35.8984914,168.880051 L35.6933416,168.872062 C32.6069601,168.633832 29.1307773,163.133109 28.1354929,161.161013 C27.79973,160.496009 26.9886403,160.316607 26.3245311,160.651807 C25.6597476,160.987006 25.3920813,161.739014 25.7271699,162.404692 C26.203171,163.349592 30.5289829,171.577836 35.8694998,171.577836 L35.8694998,171.577836 L35.9241118,171.577836 L36.1582322,171.573069 C38.4891056,171.477668 40.5095212,169.948374 42.1687612,166.812199 C48.7410826,154.394294 40.8904352,136.248992 30.0078089,129.409433 C22.5212511,124.703949 12.5930082,125.026167 4.0842354,129.408746 C4.05436658,128.665759 4.03428556,127.92026 4.02034432,127.173019 C6.55168856,125.750983 9.38390537,124.399048 12.5549091,123.153999 C27.9296772,117.117079 38.5720412,131.428337 44.7925212,144.495313 C49.8119209,155.03804 47.3405319,169.281967 39.503601,174.976844 C36.7257248,176.996782 33.5116422,177.233788 30.4548358,175.646117 C25.5974173,173.123888 22.3934164,166.936146 22.4821364,160.250153 C22.5049885,158.537919 22.8034102,156.374566 24.0958989,155.791477 C26.3898479,154.757269 31.4455422,158.141338 33.5344943,159.943122 C34.0970596,160.427907 34.9452763,160.365289 35.4298755,159.801727 C35.9144748,159.238837 35.8519675,158.389117 35.2900743,157.903659 C34.5023485,157.22294 27.4692743,151.315296 22.9936205,153.335233 C20.9187829,154.270464 19.8420451,156.584639 19.7936523,160.213794 C19.69149,167.894943 23.4788918,175.056968 29.217461,178.037723 C33.1675162,180.086613 37.4919428,179.76679 41.0824132,177.15703 C50.0384257,170.648118 52.8485636,155.15991 47.2195501,143.335869 C37.5927609,123.11562 25.268078,115.270856 11.5736124,120.646583 C8.81317783,121.730461 6.2957655,122.894687 4,124.115969 C4.00087035,123.294073 4.01170489,122.474432 4.03011356,121.657097 Z M51.9294083,180.03411 C51.1953016,179.865457 50.461195,180.338525 50.2957818,181.092913 C49.9041215,182.877414 49.0312591,184.155956 47.6307149,185.002719 C43.6170517,187.42684 36.8146036,185.440097 36.747618,185.419802 C36.016929,185.204962 35.2630001,185.629743 35.0517907,186.370836 C34.8405812,187.112628 35.2547978,187.888711 35.9786516,188.10565 C36.1734564,188.164434 39.0182906,189 42.3518456,189 C44.5678361,189 46.9998206,188.630503 49.0121204,187.417743 C51.0743176,186.174891 52.4037752,184.253929 52.9628992,181.706642 C53.128996,180.952953 52.666249,180.203462 51.9294083,180.03411 Z M51.6467366,165.000001 L51.5192831,165.006319 C50.8891391,165.068372 50.3734003,165.580793 50.3116778,166.249945 C49.8105783,171.721948 47.8667156,175.757179 44.5338992,178.241884 C38.4890918,182.750064 29.7235493,180.817593 29.6361091,180.798289 C28.913046,180.630068 28.1926734,181.098191 28.0299001,181.840706 C27.8664542,182.583222 28.3218158,183.320912 29.0468967,183.489133 C29.2311937,183.531188 31.3297583,184 34.2253737,184 C37.6806064,184 42.2705436,183.333322 46.1010965,180.48322 C50.0950952,177.513157 52.4129328,172.810557 52.9907106,166.507792 C53.0599902,165.750108 52.5171884,165.077225 51.7766373,165.006214 L51.7766373,165.006214 L51.6467366,165.000001 Z M4.74093779,114.12438 C11.2379358,110.771087 18.6684764,109.260026 26.2924484,109.816717 C35.2493529,110.471386 43.9528017,117.802389 49.8083078,129.331469 C49.847306,130.185634 49.8998427,131.035228 49.9634321,131.880668 C49.1846775,130.097488 48.3718499,128.479206 47.5404685,127.078035 C44.29598,121.610433 36.9445012,116.848044 28.8113802,114.945121 C20.1922726,112.928015 11.5043489,114.164361 4.14393284,118.417154 C4.20846988,117.037883 4.29544074,115.665131 4.40377633,114.299622 Z M4.93154408,109.1345 C20.5979789,100.529801 35.1677928,101.989514 50.5677121,113.637475 L50.3769362,113.494872 C50.2704623,114.350156 50.1761475,115.210481 50.0941796,116.075676 C49.9159074,116.139828 49.7465659,116.242939 49.601334,116.385712 C49.071759,116.906992 49.0636944,117.759629 49.5845328,118.291012 C49.6880691,118.396708 49.7909691,118.502941 49.8932366,118.609701 C49.7593413,120.593579 49.6926684,122.601676 49.6926684,124.631998 L49.7001326,123.63068 C43.5463632,113.75446 35.2884387,107.763996 26.4861381,107.120795 C18.827898,106.559332 11.3427419,107.964975 4.69798613,111.13255 C4.76415389,110.465928 4.83883531,109.801233 4.91859819,109.13839 Z M7.29668098,102.095399 C20.9833815,95.3048785 33.9645681,96.2655908 49.3858527,105.207242 C50.0479121,105.591112 50.7590918,106.072843 51.5128299,106.641695 C51.2479789,107.905663 51.0133712,109.183517 50.8067146,110.473648 C35.7132474,99.619177 20.7866638,98.1004464 5.35896244,105.874498 C5.50411396,104.855584 5.66572105,103.841918 5.83926487,102.833003 C6.31598326,102.587137 6.80161511,102.341034 7.29668098,102.095399 Z M16.1624985,93.2747901 C28.4233134,91.3388307 40.913132,94.2788077 52.7243435,101.572177 C52.5235875,102.303608 52.3335183,103.041028 52.1529604,103.783193 C51.658251,103.436782 51.1818433,103.1307 50.7257249,102.866266 C34.665383,93.5523554 20.4879778,92.5375945 6.10918904,99.6719984 L6.45991357,99.4969937 C6.7247605,98.1739845 7.01030837,96.8595976 7.3162373,95.5541648 C10.1847345,94.51603 13.1358635,93.7523826 16.1624985,93.2747901 Z M14.4815417,86.2614291 C27.8882846,84.2029177 41.5902329,87.7055451 54.4084572,96.1236415 C54.0908425,97.0374985 53.7884965,97.9592765 53.5014795,98.8894445 C41.3327105,91.54223 28.4402928,88.6097634 15.741046,90.6153966 C13.1351262,91.026595 10.5835857,91.6376341 8.09234537,92.441959 C8.54481103,90.7008297 9.03764172,88.9766871 9.56628983,87.2701252 C11.1842303,86.8528997 12.8224015,86.5160589 14.4815417,86.2614291 Z M13.5062344,79.2615595 C27.9731897,77.0989367 42.8094565,81.1506852 56.5382499,90.6455297 C56.1265474,91.5964749 55.7336818,92.5592707 55.3581864,93.5326025 C42.1369489,84.9995218 27.9755355,81.4740182 14.0703989,83.6078392 C12.8830386,83.7900973 11.7061339,84.0121306 10.5402614,84.2733399 C11.0865789,82.6510833 11.6684465,81.0455953 12.2823622,79.4575604 L12.8024598,79.3717883 L12.8024598,79.3717883 Z M16.021553,71.8050944 C30.5360897,70.8669695 45.2992317,75.7503814 58.8515475,85.7315196 C58.4414827,86.5294725 58.0447531,87.3356423 57.6607214,88.150369 C43.484158,78.4645157 28.1297953,74.3526291 13.1079866,76.6001366 L13.449681,76.5513432 C14.1124657,74.9616 14.8078215,73.3902948 15.5350172,71.8381859 Z M18.64249,65.6833257 C27.4818819,65.7062364 36.3490596,67.7141636 45.1007431,71.6847642 C50.6620288,74.2076195 56.0451356,77.4690433 61.2195675,81.4445124 C60.8494228,82.0690604 60.4871935,82.6987704 60.1330631,83.3344935 C46.4749,73.3628031 31.5935196,68.3762169 16.8833592,69.0624048 C17.3168962,68.1888198 17.7638437,67.3227081 18.2208835,66.4631386 Z M22.5798462,58.9515329 C36.9292456,60.2450108 51.0399649,66.4607933 63.950691,77.168258 C63.5031767,77.8192573 63.0663281,78.4785873 62.6388376,79.145499 C57.3722352,75.1241562 51.8895925,71.8157828 46.2221277,69.244528 C37.5986248,65.3322635 28.8569568,63.2511527 20.1253433,63.0213827 C20.718508,61.9889504 21.3272523,60.9664536 21.9506608,59.954351 Z M26.8804696,52.5898 C41.0052947,54.9049064 54.804699,61.6899895 67.3635659,72.5546704 C66.7318285,73.3444633 66.1151718,74.1482337 65.5134035,74.9652146 C52.6406364,64.3238122 38.579908,58.0023848 24.2286495,56.4038545 C24.8287264,55.4994208 25.4425249,54.6053243 26.0681553,53.7203845 Z M31.3427935,46.8203652 C45.1550949,50.2250865 58.538658,57.6488342 70.6175139,68.7411113 C70.0973243,69.3110563 69.5858029,69.8897446 69.0825799,70.4765974 C56.555965,59.6493076 42.8055587,52.7572636 28.6867935,50.1637851 C29.2994966,49.3587936 29.9244828,48.5630371 30.5594323,47.7756899 Z M36.0018079,41.4988856 C49.3097661,45.7755548 62.1043068,53.6057105 73.5823632,64.6819807 C73.7515734,64.8452642 73.9206765,65.0086441 74.0896728,65.1721176 C73.5373918,65.701366 72.9948259,66.2401774 72.4600649,66.7873985 C60.4086899,55.7128341 47.0705189,48.1869399 33.2691194,44.539469 C33.9713135,43.7267808 34.6855376,42.9257844 35.4105572,42.1347177 Z M41.2064908,36.2444556 C52.5821866,40.5332833 63.5041515,47.2596182 73.4580481,56.2377614 C75.2252634,57.8318035 76.9813054,59.4379067 78.7266308,61.0532057 C77.8202417,61.7922588 76.9331021,62.5524872 76.0633611,63.3332629 L75.4430336,62.7315568 C64.0197061,51.7080641 51.3104215,43.8124998 38.0654261,39.3317438 C38.8996436,38.4792923 39.7472169,37.6391904 40.6075954,36.8119187 Z M45.6199849,32.2656572 C54.7371292,36.2073968 63.5258856,41.6637779 71.8286698,48.5821005 C75.5212726,51.6592462 79.1678264,54.7953355 82.7725711,57.9683837 C82.129481,58.421366 81.4961943,58.8867647 80.8702795,59.3619444 C79.0136959,57.6393797 77.1416464,55.9257627 75.2563862,54.225309 C65.4176545,45.3506863 54.6476038,38.617994 43.4178798,34.1974284 L44.7239972,33.0373135 L44.7239972,33.0373135 Z M51.2482747,27.7344493 C58.0542362,31.0415702 64.6533746,35.1501704 70.9772671,40.0391893 C76.9257711,44.6379462 82.7619041,49.4074217 88.5024676,54.270057 C87.3336861,54.9493283 86.1864666,55.6598474 85.0596801,56.40026 C81.2754358,53.0608105 77.4433982,49.7606843 73.5584541,46.5235248 C65.4259522,39.7465376 56.833822,34.3372569 47.9228905,30.3418554 C48.7678248,29.6512726 49.6253943,28.9729272 50.4928537,28.3060896 Z M56.9048679,23.7112112 C61.2378252,26.0489956 65.4754086,28.6949168 69.5991307,31.6436695 C78.1766805,37.7772512 86.5371495,44.3006106 94.725329,51.0231477 C93.4648398,51.6068423 92.2244135,52.2241908 91.0036071,52.8743976 C84.9934349,47.7681112 78.8747093,42.7555844 72.6267418,37.9253285 C66.5413555,33.2207512 60.2054221,29.220903 53.6769886,25.9437721 C54.6291043,25.2594331 55.5937963,24.5892487 56.5693034,23.9327781 Z M63.2664026,19.7437448 C65.2610114,20.9131214 67.232767,22.144932 69.1797686,23.4386667 C80.5474857,30.9920227 91.5594756,39.2974209 102.305637,47.9978799 C100.672297,48.5491185 99.0644464,49.1539144 97.483541,49.810905 C88.9235482,42.7528368 80.1701916,35.8981767 71.1698435,29.4625022 C67.3579467,26.73688 63.450575,24.2638864 59.461652,22.0475344 C60.6061698,21.3236773 61.7659793,20.6183345 62.9394117,19.93183 Z"/>
    </defs>
    <g fill="none" fill-rule="evenodd">
        <rect width="254" height="254" fill="#D8D8D8" opacity="0"/>
        <use fill="#FFF" fill-rule="nonzero" xlink:href="#q-only-fingerprint---white-a"/>
    </g>
</svg>