<svg id="logo" xmlns="http://www.w3.org/2000/svg" width="183.999" height="40" viewBox="0 0 183.999 40">
  <defs>
    <style>
      .cls-1 {
        fill: #0b4141;
      }

      .cls-2, .cls-3 {
        fill: #fff;
      }

      .cls-3 {
        fill-rule: evenodd;
      }
    </style>
  </defs>
  <path id="Path_85" data-name="Path 85" class="cls-1" d="M53.769,0H0V40H53.769V28.188H50.633v8.676H3.136V3.136h47.5V22.874h3.136Z"/>
  <path id="Path_86" data-name="Path 86" class="cls-2" d="M21.893,9.876,42.451,9.85v3.892l-18.5.027v2.662H37.531a7.164,7.164,0,0,1,3.557,1.216,3.228,3.228,0,0,1,1.362,2.781V22.45a4.047,4.047,0,0,1-1.414,3.113,4.871,4.871,0,0,1-3.391,1.287h-20.5V23.012l18.449.081V19.945H21.984a6.44,6.44,0,0,1-3.5-1.53,3.891,3.891,0,0,1-1.319-3.006V14.25a4.087,4.087,0,0,1,1.362-3.087A4.713,4.713,0,0,1,21.893,9.876Z"/>
  <path id="Path_87" data-name="Path 87" class="cls-3" d="M61.782,26.862V16.782H74.1a3.017,3.017,0,0,1,2.073.761,2.327,2.327,0,0,1,.854,1.811v1.23a2.327,2.327,0,0,1-.854,1.811,3.017,3.017,0,0,1-2.074.761l-5.889-.017h0l-2.35-.033.033,3.757Zm4.111-7.849-.037,1.958,2.348.034h4.68V19.013H65.894Z"/>
  <path id="Path_88" data-name="Path 88" class="cls-3" d="M78.775,26.862V16.782H91.089a3.02,3.02,0,0,1,2.074.761,2.329,2.329,0,0,1,.854,1.811v1.23a2.329,2.329,0,0,1-.854,1.812,3.02,3.02,0,0,1-2.074.761L85.2,23.139h0l-2.349-.033.032,3.757Zm4.111-7.849-.036,1.958,2.348.034h4.68V19.013H82.885Z"/>
  <path id="Path_89" data-name="Path 89" class="cls-2" d="M95.768,16.761h3.751V24.5h7.35l3.849-.031v2.392H98.42a2.477,2.477,0,0,1-1.84-.779,2.556,2.556,0,0,1-.764-1.859Z"/>
  <path id="Path_90" data-name="Path 90" class="cls-2" d="M112.753,26.862V16.782h3.785v4.094l-.017,1.39v0l.017,1.018v3.575Z"/>
  <path id="Path_91" data-name="Path 91" class="cls-3" d="M129.639,23.686h-.131v-.131h-7.445v3.3h-3.687l.031-2.587V19.365A2.592,2.592,0,0,1,121,16.778l7.282-.017,2.427.017h0a2.59,2.59,0,0,1,2.588,2.587v4.9l-.031,2.59h-3.624Zm-7.576-4.6v2.527h7.576V19.089Z"/>
  <path id="Path_92" data-name="Path 92" class="cls-2" d="M135.276,19.224l.014-2.442h12.381a2.592,2.592,0,0,1,2.588,2.588v7.491h-3.687l.032-7.768h-7.673v7.768h-3.64l-.015-5.986Z"/>
  <path id="Path_93" data-name="Path 93" class="cls-2" d="M152.917,17.538a2.5,2.5,0,0,1,1.825-.756h12.379l-.015,2.312h-11.3V24.55h7.527l3.737-.016v2.327H154.742a2.592,2.592,0,0,1-2.588-2.588v-4.9A2.48,2.48,0,0,1,152.917,17.538Z"/>
  <path id="Path_94" data-name="Path 94" class="cls-2" d="M169.8,17.538a2.5,2.5,0,0,1,1.826-.756H184l-.044,2.312H172.689v1.554h.13v.131l10.421.048v1.94l-10.551-.049V24.55h7.527l3.739-.016L184,26.862H171.622a2.59,2.59,0,0,1-2.588-2.588v-4.9A2.476,2.476,0,0,1,169.8,17.538Z"/>
  <path id="Path_95" data-name="Path 95" class="cls-2" d="M44.936,22.768l.016-5.986h3.639v7.769h7.674l-.032-7.769H59.92v7.491a2.592,2.592,0,0,1-2.589,2.589H47.557A2.631,2.631,0,0,1,44.9,24.211l.032-1.44Z"/>
</svg>
