<svg xmlns="http://www.w3.org/2000/svg" xmlns:xlink="http://www.w3.org/1999/xlink" width="160" height="117"
     viewBox="0 0 160 80">
    <title>MC Logo</title>
    <defs>
        <path id="a" d="M.012.06v9.987h11.757V.059H.012z"/>
    </defs>
    <g fill="none" fill-rule="evenodd">
        <path d="M101.15.02c-11.665 0-21.73 6.278-26.404 15.351-4.117-2.036-8.827-3.192-13.831-3.192-16.122 0-29.192 11.99-29.192 26.78v33.813c0 5.226 4.063 9.463 9.073 9.463 5.012 0 9.075-4.237 9.075-9.463V39.63c0-5.596 4.944-10.132 11.044-10.132 6.1 0 11.044 4.536 11.044 10.132v33.142c0 5.226 4.062 9.463 9.074 9.463 5.01 0 9.073-4.237 9.073-9.463V26.39c0-5.595 4.945-10.132 11.044-10.132 6.1 0 11.045 4.537 11.045 10.132v46.382c0 5.226 4.063 9.463 9.073 9.463 5.012 0 9.074-4.237 9.074-9.463v-45.97C130.342 12.01 117.272.02 101.15.02"
              fill="#EFA03F"/>
    </g>
</svg>